<mxfile host="app.diagrams.net" agent="Mozilla/5.0 (Windows NT 10.0; Win64; x64) AppleWebKit/537.36 (KHTML, like Gecko) Chrome/135.0.0.0 Safari/537.36" version="26.1.2">
  <diagram name="Page-1" id="7IwiaP4MJzMjOHMsoARC">
    <mxGraphModel grid="1" page="1" gridSize="10" guides="1" tooltips="1" connect="1" arrows="1" fold="1" pageScale="1" pageWidth="827" pageHeight="1169" math="0" shadow="0">
      <root>
        <mxCell id="0" />
        <mxCell id="1" parent="0" />
        <mxCell id="UGsb4Rsi1y-N294cucFI-4" value="" style="rounded=0;whiteSpace=wrap;html=1;" vertex="1" parent="1">
          <mxGeometry x="280" y="-10" width="970" height="720" as="geometry" />
        </mxCell>
        <mxCell id="pee0DD7MzSnWl7-e-I3B-1" value="drivers" style="whiteSpace=wrap;html=1;align=center;" vertex="1" parent="1">
          <mxGeometry x="420" y="390" width="100" height="40" as="geometry" />
        </mxCell>
        <mxCell id="pee0DD7MzSnWl7-e-I3B-2" value="meetings" style="whiteSpace=wrap;html=1;align=center;" vertex="1" parent="1">
          <mxGeometry x="420" y="190" width="100" height="40" as="geometry" />
        </mxCell>
        <mxCell id="pee0DD7MzSnWl7-e-I3B-3" value="sessions" style="whiteSpace=wrap;html=1;align=center;" vertex="1" parent="1">
          <mxGeometry x="790" y="190" width="100" height="40" as="geometry" />
        </mxCell>
        <mxCell id="pee0DD7MzSnWl7-e-I3B-5" value="stints" style="whiteSpace=wrap;html=1;align=center;" vertex="1" parent="1">
          <mxGeometry x="790" y="390" width="100" height="40" as="geometry" />
        </mxCell>
        <mxCell id="pee0DD7MzSnWl7-e-I3B-6" value="weather" style="whiteSpace=wrap;html=1;align=center;" vertex="1" parent="1">
          <mxGeometry x="1120" y="190" width="100" height="40" as="geometry" />
        </mxCell>
        <mxCell id="pee0DD7MzSnWl7-e-I3B-7" value="team_radio" style="whiteSpace=wrap;html=1;align=center;" vertex="1" parent="1">
          <mxGeometry x="420" y="610" width="100" height="40" as="geometry" />
        </mxCell>
        <mxCell id="pee0DD7MzSnWl7-e-I3B-8" value="pit" style="whiteSpace=wrap;html=1;align=center;" vertex="1" parent="1">
          <mxGeometry x="960" y="490" width="100" height="40" as="geometry" />
        </mxCell>
        <mxCell id="pee0DD7MzSnWl7-e-I3B-9" value="race_control" style="whiteSpace=wrap;html=1;align=center;" vertex="1" parent="1">
          <mxGeometry x="790" y="10" width="100" height="40" as="geometry" />
        </mxCell>
        <mxCell id="pee0DD7MzSnWl7-e-I3B-10" value="performs" style="shape=rhombus;perimeter=rhombusPerimeter;whiteSpace=wrap;html=1;align=center;" vertex="1" parent="1">
          <mxGeometry x="590" y="380" width="120" height="60" as="geometry" />
        </mxCell>
        <mxCell id="pee0DD7MzSnWl7-e-I3B-13" value="" style="endArrow=none;html=1;rounded=0;entryX=0;entryY=0.5;entryDx=0;entryDy=0;exitX=1;exitY=0.5;exitDx=0;exitDy=0;" edge="1" parent="1" source="pee0DD7MzSnWl7-e-I3B-10" target="pee0DD7MzSnWl7-e-I3B-5">
          <mxGeometry relative="1" as="geometry">
            <mxPoint x="470" y="510" as="sourcePoint" />
            <mxPoint x="640" y="510" as="targetPoint" />
          </mxGeometry>
        </mxCell>
        <mxCell id="UGsb4Rsi1y-N294cucFI-17" value="M" style="edgeLabel;html=1;align=center;verticalAlign=middle;resizable=0;points=[];" connectable="0" vertex="1" parent="pee0DD7MzSnWl7-e-I3B-13">
          <mxGeometry x="0.3288" y="-2" relative="1" as="geometry">
            <mxPoint as="offset" />
          </mxGeometry>
        </mxCell>
        <mxCell id="pee0DD7MzSnWl7-e-I3B-15" value="" style="endArrow=none;html=1;rounded=0;entryX=1;entryY=0.5;entryDx=0;entryDy=0;exitX=0;exitY=0.5;exitDx=0;exitDy=0;" edge="1" parent="1" source="pee0DD7MzSnWl7-e-I3B-10" target="pee0DD7MzSnWl7-e-I3B-1">
          <mxGeometry relative="1" as="geometry">
            <mxPoint x="480" y="650" as="sourcePoint" />
            <mxPoint x="640" y="650" as="targetPoint" />
          </mxGeometry>
        </mxCell>
        <mxCell id="UGsb4Rsi1y-N294cucFI-18" value="1" style="edgeLabel;html=1;align=center;verticalAlign=middle;resizable=0;points=[];" connectable="0" vertex="1" parent="pee0DD7MzSnWl7-e-I3B-15">
          <mxGeometry x="0.5203" y="-1" relative="1" as="geometry">
            <mxPoint as="offset" />
          </mxGeometry>
        </mxCell>
        <mxCell id="pee0DD7MzSnWl7-e-I3B-17" value="sends radio" style="shape=rhombus;perimeter=rhombusPerimeter;whiteSpace=wrap;html=1;align=center;" vertex="1" parent="1">
          <mxGeometry x="410" y="490" width="120" height="60" as="geometry" />
        </mxCell>
        <mxCell id="pee0DD7MzSnWl7-e-I3B-18" value="" style="endArrow=none;html=1;rounded=0;exitX=0.5;exitY=1;exitDx=0;exitDy=0;entryX=0.5;entryY=0;entryDx=0;entryDy=0;" edge="1" parent="1" source="pee0DD7MzSnWl7-e-I3B-1" target="pee0DD7MzSnWl7-e-I3B-17">
          <mxGeometry relative="1" as="geometry">
            <mxPoint x="480" y="650" as="sourcePoint" />
            <mxPoint x="640" y="650" as="targetPoint" />
          </mxGeometry>
        </mxCell>
        <mxCell id="UGsb4Rsi1y-N294cucFI-28" value="1" style="edgeLabel;html=1;align=center;verticalAlign=middle;resizable=0;points=[];" connectable="0" vertex="1" parent="pee0DD7MzSnWl7-e-I3B-18">
          <mxGeometry x="-0.5037" y="-1" relative="1" as="geometry">
            <mxPoint as="offset" />
          </mxGeometry>
        </mxCell>
        <mxCell id="pee0DD7MzSnWl7-e-I3B-19" value="" style="endArrow=none;html=1;rounded=0;exitX=0.5;exitY=1;exitDx=0;exitDy=0;entryX=0.5;entryY=0;entryDx=0;entryDy=0;" edge="1" parent="1" source="pee0DD7MzSnWl7-e-I3B-17" target="pee0DD7MzSnWl7-e-I3B-7">
          <mxGeometry relative="1" as="geometry">
            <mxPoint x="480" y="650" as="sourcePoint" />
            <mxPoint x="640" y="650" as="targetPoint" />
          </mxGeometry>
        </mxCell>
        <mxCell id="UGsb4Rsi1y-N294cucFI-29" value="M" style="edgeLabel;html=1;align=center;verticalAlign=middle;resizable=0;points=[];" connectable="0" vertex="1" parent="pee0DD7MzSnWl7-e-I3B-19">
          <mxGeometry x="0.2741" y="1" relative="1" as="geometry">
            <mxPoint as="offset" />
          </mxGeometry>
        </mxCell>
        <mxCell id="pee0DD7MzSnWl7-e-I3B-20" value="participates_in" style="shape=rhombus;perimeter=rhombusPerimeter;whiteSpace=wrap;html=1;align=center;" vertex="1" parent="1">
          <mxGeometry x="410" y="270" width="120" height="60" as="geometry" />
        </mxCell>
        <mxCell id="pee0DD7MzSnWl7-e-I3B-21" value="" style="endArrow=none;html=1;rounded=0;entryX=0.5;entryY=1;entryDx=0;entryDy=0;exitX=0.5;exitY=0;exitDx=0;exitDy=0;" edge="1" parent="1" source="pee0DD7MzSnWl7-e-I3B-1" target="pee0DD7MzSnWl7-e-I3B-20">
          <mxGeometry relative="1" as="geometry">
            <mxPoint x="470" y="440" as="sourcePoint" />
            <mxPoint x="630" y="440" as="targetPoint" />
          </mxGeometry>
        </mxCell>
        <mxCell id="UGsb4Rsi1y-N294cucFI-11" value="M" style="edgeLabel;html=1;align=center;verticalAlign=middle;resizable=0;points=[];" connectable="0" vertex="1" parent="pee0DD7MzSnWl7-e-I3B-21">
          <mxGeometry x="-0.2273" y="1" relative="1" as="geometry">
            <mxPoint as="offset" />
          </mxGeometry>
        </mxCell>
        <mxCell id="pee0DD7MzSnWl7-e-I3B-22" value="" style="endArrow=none;html=1;rounded=0;entryX=0.5;entryY=1;entryDx=0;entryDy=0;exitX=0.5;exitY=0;exitDx=0;exitDy=0;" edge="1" parent="1" source="pee0DD7MzSnWl7-e-I3B-20" target="pee0DD7MzSnWl7-e-I3B-2">
          <mxGeometry relative="1" as="geometry">
            <mxPoint x="470" y="440" as="sourcePoint" />
            <mxPoint x="630" y="440" as="targetPoint" />
          </mxGeometry>
        </mxCell>
        <mxCell id="UGsb4Rsi1y-N294cucFI-12" value="1" style="edgeLabel;html=1;align=center;verticalAlign=middle;resizable=0;points=[];" connectable="0" vertex="1" parent="pee0DD7MzSnWl7-e-I3B-22">
          <mxGeometry x="0.1488" relative="1" as="geometry">
            <mxPoint as="offset" />
          </mxGeometry>
        </mxCell>
        <mxCell id="pee0DD7MzSnWl7-e-I3B-23" value="has" style="shape=rhombus;perimeter=rhombusPerimeter;whiteSpace=wrap;html=1;align=center;" vertex="1" parent="1">
          <mxGeometry x="620" y="180" width="120" height="60" as="geometry" />
        </mxCell>
        <mxCell id="pee0DD7MzSnWl7-e-I3B-24" value="" style="endArrow=none;html=1;rounded=0;exitX=1;exitY=0.5;exitDx=0;exitDy=0;entryX=0;entryY=0.5;entryDx=0;entryDy=0;" edge="1" parent="1" source="pee0DD7MzSnWl7-e-I3B-2" target="pee0DD7MzSnWl7-e-I3B-23">
          <mxGeometry relative="1" as="geometry">
            <mxPoint x="540" y="470" as="sourcePoint" />
            <mxPoint x="700" y="470" as="targetPoint" />
          </mxGeometry>
        </mxCell>
        <mxCell id="UGsb4Rsi1y-N294cucFI-13" value="1" style="edgeLabel;html=1;align=center;verticalAlign=middle;resizable=0;points=[];" connectable="0" vertex="1" parent="pee0DD7MzSnWl7-e-I3B-24">
          <mxGeometry x="-0.4461" y="-2" relative="1" as="geometry">
            <mxPoint as="offset" />
          </mxGeometry>
        </mxCell>
        <mxCell id="pee0DD7MzSnWl7-e-I3B-25" value="" style="endArrow=none;html=1;rounded=0;entryX=0;entryY=0.5;entryDx=0;entryDy=0;exitX=1;exitY=0.5;exitDx=0;exitDy=0;" edge="1" parent="1" source="pee0DD7MzSnWl7-e-I3B-23" target="pee0DD7MzSnWl7-e-I3B-3">
          <mxGeometry relative="1" as="geometry">
            <mxPoint x="540" y="470" as="sourcePoint" />
            <mxPoint x="700" y="470" as="targetPoint" />
          </mxGeometry>
        </mxCell>
        <mxCell id="UGsb4Rsi1y-N294cucFI-14" value="M" style="edgeLabel;html=1;align=center;verticalAlign=middle;resizable=0;points=[];" connectable="0" vertex="1" parent="pee0DD7MzSnWl7-e-I3B-25">
          <mxGeometry x="0.217" relative="1" as="geometry">
            <mxPoint as="offset" />
          </mxGeometry>
        </mxCell>
        <mxCell id="pee0DD7MzSnWl7-e-I3B-27" value="consists" style="shape=rhombus;perimeter=rhombusPerimeter;whiteSpace=wrap;html=1;align=center;" vertex="1" parent="1">
          <mxGeometry x="780" y="270" width="120" height="60" as="geometry" />
        </mxCell>
        <mxCell id="pee0DD7MzSnWl7-e-I3B-28" value="" style="endArrow=none;html=1;rounded=0;entryX=0.5;entryY=1;entryDx=0;entryDy=0;exitX=0.5;exitY=0;exitDx=0;exitDy=0;" edge="1" parent="1" source="pee0DD7MzSnWl7-e-I3B-27" target="pee0DD7MzSnWl7-e-I3B-3">
          <mxGeometry relative="1" as="geometry">
            <mxPoint x="540" y="470" as="sourcePoint" />
            <mxPoint x="700" y="470" as="targetPoint" />
          </mxGeometry>
        </mxCell>
        <mxCell id="UGsb4Rsi1y-N294cucFI-15" value="1" style="edgeLabel;html=1;align=center;verticalAlign=middle;resizable=0;points=[];" connectable="0" vertex="1" parent="pee0DD7MzSnWl7-e-I3B-28">
          <mxGeometry x="0.4253" relative="1" as="geometry">
            <mxPoint as="offset" />
          </mxGeometry>
        </mxCell>
        <mxCell id="pee0DD7MzSnWl7-e-I3B-29" value="" style="endArrow=none;html=1;rounded=0;entryX=0.5;entryY=1;entryDx=0;entryDy=0;exitX=0.5;exitY=0;exitDx=0;exitDy=0;" edge="1" parent="1" source="pee0DD7MzSnWl7-e-I3B-5" target="pee0DD7MzSnWl7-e-I3B-27">
          <mxGeometry relative="1" as="geometry">
            <mxPoint x="540" y="470" as="sourcePoint" />
            <mxPoint x="700" y="470" as="targetPoint" />
          </mxGeometry>
        </mxCell>
        <mxCell id="UGsb4Rsi1y-N294cucFI-16" value="M" style="edgeLabel;html=1;align=center;verticalAlign=middle;resizable=0;points=[];" connectable="0" vertex="1" parent="pee0DD7MzSnWl7-e-I3B-29">
          <mxGeometry x="-0.0439" y="-1" relative="1" as="geometry">
            <mxPoint as="offset" />
          </mxGeometry>
        </mxCell>
        <mxCell id="pee0DD7MzSnWl7-e-I3B-30" value="has" style="shape=rhombus;perimeter=rhombusPerimeter;whiteSpace=wrap;html=1;align=center;" vertex="1" parent="1">
          <mxGeometry x="950" y="340" width="120" height="60" as="geometry" />
        </mxCell>
        <mxCell id="pee0DD7MzSnWl7-e-I3B-31" value="" style="endArrow=none;html=1;rounded=0;entryX=0.5;entryY=0;entryDx=0;entryDy=0;exitX=1;exitY=1;exitDx=0;exitDy=0;" edge="1" parent="1" source="pee0DD7MzSnWl7-e-I3B-3" target="pee0DD7MzSnWl7-e-I3B-30">
          <mxGeometry relative="1" as="geometry">
            <mxPoint x="540" y="470" as="sourcePoint" />
            <mxPoint x="700" y="470" as="targetPoint" />
          </mxGeometry>
        </mxCell>
        <mxCell id="UGsb4Rsi1y-N294cucFI-21" value="1" style="edgeLabel;html=1;align=center;verticalAlign=middle;resizable=0;points=[];" connectable="0" vertex="1" parent="pee0DD7MzSnWl7-e-I3B-31">
          <mxGeometry x="-0.7664" y="1" relative="1" as="geometry">
            <mxPoint as="offset" />
          </mxGeometry>
        </mxCell>
        <mxCell id="pee0DD7MzSnWl7-e-I3B-32" value="" style="endArrow=none;html=1;rounded=0;entryX=0.5;entryY=1;entryDx=0;entryDy=0;exitX=0.5;exitY=0;exitDx=0;exitDy=0;" edge="1" parent="1" source="pee0DD7MzSnWl7-e-I3B-8" target="pee0DD7MzSnWl7-e-I3B-30">
          <mxGeometry relative="1" as="geometry">
            <mxPoint x="540" y="470" as="sourcePoint" />
            <mxPoint x="700" y="470" as="targetPoint" />
          </mxGeometry>
        </mxCell>
        <mxCell id="UGsb4Rsi1y-N294cucFI-22" value="M" style="edgeLabel;html=1;align=center;verticalAlign=middle;resizable=0;points=[];" connectable="0" vertex="1" parent="pee0DD7MzSnWl7-e-I3B-32">
          <mxGeometry x="-0.3265" y="-1" relative="1" as="geometry">
            <mxPoint as="offset" />
          </mxGeometry>
        </mxCell>
        <mxCell id="UGsb4Rsi1y-N294cucFI-1" value="records" style="shape=rhombus;perimeter=rhombusPerimeter;whiteSpace=wrap;html=1;align=center;" vertex="1" parent="1">
          <mxGeometry x="940" y="180" width="120" height="60" as="geometry" />
        </mxCell>
        <mxCell id="UGsb4Rsi1y-N294cucFI-2" value="" style="endArrow=none;html=1;rounded=0;entryX=0;entryY=0.5;entryDx=0;entryDy=0;exitX=1;exitY=0.5;exitDx=0;exitDy=0;" edge="1" parent="1" source="pee0DD7MzSnWl7-e-I3B-3" target="UGsb4Rsi1y-N294cucFI-1">
          <mxGeometry relative="1" as="geometry">
            <mxPoint x="540" y="470" as="sourcePoint" />
            <mxPoint x="700" y="470" as="targetPoint" />
          </mxGeometry>
        </mxCell>
        <mxCell id="UGsb4Rsi1y-N294cucFI-24" value="1" style="edgeLabel;html=1;align=center;verticalAlign=middle;resizable=0;points=[];" connectable="0" vertex="1" parent="UGsb4Rsi1y-N294cucFI-2">
          <mxGeometry x="-0.24" relative="1" as="geometry">
            <mxPoint as="offset" />
          </mxGeometry>
        </mxCell>
        <mxCell id="UGsb4Rsi1y-N294cucFI-3" value="" style="endArrow=none;html=1;rounded=0;entryX=0;entryY=0.5;entryDx=0;entryDy=0;exitX=1;exitY=0.5;exitDx=0;exitDy=0;" edge="1" parent="1" source="UGsb4Rsi1y-N294cucFI-1" target="pee0DD7MzSnWl7-e-I3B-6">
          <mxGeometry relative="1" as="geometry">
            <mxPoint x="540" y="470" as="sourcePoint" />
            <mxPoint x="700" y="470" as="targetPoint" />
          </mxGeometry>
        </mxCell>
        <mxCell id="UGsb4Rsi1y-N294cucFI-25" value="M" style="edgeLabel;html=1;align=center;verticalAlign=middle;resizable=0;points=[];" connectable="0" vertex="1" parent="UGsb4Rsi1y-N294cucFI-3">
          <mxGeometry x="0.2831" y="-3" relative="1" as="geometry">
            <mxPoint y="-2" as="offset" />
          </mxGeometry>
        </mxCell>
        <mxCell id="kR-lsPkIbPtji5rl3sJj-1" value="managed by" style="shape=rhombus;perimeter=rhombusPerimeter;whiteSpace=wrap;html=1;align=center;" vertex="1" parent="1">
          <mxGeometry x="780" y="100" width="120" height="60" as="geometry" />
        </mxCell>
        <mxCell id="UGsb4Rsi1y-N294cucFI-5" value="logs_pit" style="shape=rhombus;perimeter=rhombusPerimeter;whiteSpace=wrap;html=1;align=center;" vertex="1" parent="1">
          <mxGeometry x="660" y="480" width="120" height="60" as="geometry" />
        </mxCell>
        <mxCell id="UGsb4Rsi1y-N294cucFI-6" value="" style="endArrow=none;html=1;rounded=0;entryX=0;entryY=0.5;entryDx=0;entryDy=0;exitX=1;exitY=1;exitDx=0;exitDy=0;" edge="1" parent="1" source="pee0DD7MzSnWl7-e-I3B-1" target="UGsb4Rsi1y-N294cucFI-5">
          <mxGeometry relative="1" as="geometry">
            <mxPoint x="620" y="340" as="sourcePoint" />
            <mxPoint x="780" y="340" as="targetPoint" />
          </mxGeometry>
        </mxCell>
        <mxCell id="UGsb4Rsi1y-N294cucFI-19" value="1" style="edgeLabel;html=1;align=center;verticalAlign=middle;resizable=0;points=[];" connectable="0" vertex="1" parent="UGsb4Rsi1y-N294cucFI-6">
          <mxGeometry x="-0.5914" relative="1" as="geometry">
            <mxPoint as="offset" />
          </mxGeometry>
        </mxCell>
        <mxCell id="UGsb4Rsi1y-N294cucFI-7" value="" style="endArrow=none;html=1;rounded=0;entryX=0;entryY=0.5;entryDx=0;entryDy=0;exitX=1;exitY=0.5;exitDx=0;exitDy=0;" edge="1" parent="1" source="UGsb4Rsi1y-N294cucFI-5" target="pee0DD7MzSnWl7-e-I3B-8">
          <mxGeometry relative="1" as="geometry">
            <mxPoint x="620" y="340" as="sourcePoint" />
            <mxPoint x="780" y="340" as="targetPoint" />
          </mxGeometry>
        </mxCell>
        <mxCell id="UGsb4Rsi1y-N294cucFI-20" value="M" style="edgeLabel;html=1;align=center;verticalAlign=middle;resizable=0;points=[];" connectable="0" vertex="1" parent="UGsb4Rsi1y-N294cucFI-7">
          <mxGeometry x="0.53" y="-1" relative="1" as="geometry">
            <mxPoint as="offset" />
          </mxGeometry>
        </mxCell>
        <mxCell id="UGsb4Rsi1y-N294cucFI-8" value="" style="endArrow=none;html=1;rounded=0;entryX=0.5;entryY=0;entryDx=0;entryDy=0;exitX=0.5;exitY=1;exitDx=0;exitDy=0;" edge="1" parent="1" source="kR-lsPkIbPtji5rl3sJj-1" target="pee0DD7MzSnWl7-e-I3B-3">
          <mxGeometry relative="1" as="geometry">
            <mxPoint x="610" y="350" as="sourcePoint" />
            <mxPoint x="780" y="340" as="targetPoint" />
          </mxGeometry>
        </mxCell>
        <mxCell id="UGsb4Rsi1y-N294cucFI-26" value="1" style="edgeLabel;html=1;align=center;verticalAlign=middle;resizable=0;points=[];" connectable="0" vertex="1" parent="UGsb4Rsi1y-N294cucFI-8">
          <mxGeometry x="0.1091" y="1" relative="1" as="geometry">
            <mxPoint as="offset" />
          </mxGeometry>
        </mxCell>
        <mxCell id="UGsb4Rsi1y-N294cucFI-9" value="" style="endArrow=none;html=1;rounded=0;exitX=0.5;exitY=1;exitDx=0;exitDy=0;entryX=0.5;entryY=0;entryDx=0;entryDy=0;" edge="1" parent="1" source="pee0DD7MzSnWl7-e-I3B-9" target="kR-lsPkIbPtji5rl3sJj-1">
          <mxGeometry relative="1" as="geometry">
            <mxPoint x="620" y="340" as="sourcePoint" />
            <mxPoint x="780" y="340" as="targetPoint" />
          </mxGeometry>
        </mxCell>
        <mxCell id="UGsb4Rsi1y-N294cucFI-27" value="M" style="edgeLabel;html=1;align=center;verticalAlign=middle;resizable=0;points=[];" connectable="0" vertex="1" parent="UGsb4Rsi1y-N294cucFI-9">
          <mxGeometry x="-0.4364" y="1" relative="1" as="geometry">
            <mxPoint as="offset" />
          </mxGeometry>
        </mxCell>
      </root>
    </mxGraphModel>
  </diagram>
</mxfile>
